<?xml version="1.0" standalone="no"?>
<!DOCTYPE svg PUBLIC "-//W3C//DTD SVG 20010904//EN"
 "http://www.w3.org/TR/2001/REC-SVG-20010904/DTD/svg10.dtd">
<svg version="1.0" xmlns="http://www.w3.org/2000/svg"
 width="2047.000000pt" height="2048.000000pt" viewBox="0 0 2047.000000 2048.000000"
 preserveAspectRatio="xMidYMid meet">

<g transform="translate(0.000000,2048.000000) scale(0.100000,-0.100000)"
fill="#000000" stroke="none">
<path d="M1407 15334 c-4 -4 -7 -2296 -7 -5094 0 -4812 1 -5088 18 -5102 9 -8
67 -43 127 -78 61 -34 151 -86 200 -115 130 -76 632 -366 900 -520 127 -73
329 -190 450 -260 121 -71 256 -148 300 -173 44 -24 85 -48 90 -52 6 -4 36
-21 67 -39 l58 -32 0 5101 c0 4849 -1 5101 -17 5107 -10 4 -45 23 -78 44 -77
47 -273 159 -278 159 -3 0 -34 18 -68 40 -35 22 -71 43 -79 47 -8 4 -80 45
-160 91 -80 47 -159 93 -177 103 -17 10 -50 29 -72 44 -23 14 -41 23 -41 20 0
-3 -6 -1 -12 5 -12 11 -53 35 -288 170 -115 66 -117 68 -207 122 -34 21 -64
38 -66 38 -3 0 -44 24 -93 53 -49 29 -118 69 -154 89 -80 44 -346 198 -381
221 -14 9 -29 14 -32 11z"/>
<path d="M18950 15274 c-58 -35 -127 -75 -155 -89 -27 -15 -57 -32 -65 -39 -8
-7 -28 -20 -45 -28 -16 -8 -86 -48 -155 -88 -68 -40 -140 -82 -160 -93 -58
-32 -118 -67 -245 -140 -216 -125 -259 -150 -331 -194 -39 -24 -74 -43 -78
-43 -3 0 -36 -18 -72 -40 -36 -22 -68 -40 -70 -40 -2 0 -28 -16 -58 -35 -30
-19 -59 -35 -64 -35 -5 0 -20 -8 -33 -19 -13 -10 -55 -35 -94 -56 -38 -20 -89
-50 -113 -66 -24 -16 -46 -29 -49 -29 -3 0 -29 -14 -57 -32 -28 -17 -76 -45
-106 -61 -30 -17 -67 -38 -82 -49 -14 -10 -33 -18 -42 -18 -15 0 -16 -333 -18
-3836 l-3 -3835 -25 -14 c-14 -7 -74 -42 -135 -78 -60 -35 -130 -75 -155 -89
-25 -13 -117 -67 -205 -118 -88 -51 -248 -143 -355 -205 -107 -62 -251 -145
-320 -185 -69 -40 -278 -160 -465 -268 -187 -107 -344 -198 -350 -202 -5 -4
-84 -50 -175 -102 -91 -52 -327 -189 -525 -303 -198 -114 -477 -276 -620 -358
-143 -82 -285 -164 -315 -182 -30 -18 -145 -84 -255 -147 -110 -63 -272 -157
-360 -208 -88 -51 -178 -102 -200 -114 -22 -13 -121 -70 -220 -128 -99 -57
-331 -191 -515 -297 -184 -106 -383 -222 -442 -257 -59 -35 -110 -64 -113 -64
-3 0 -22 -11 -43 -23 -20 -13 -158 -94 -307 -179 -148 -86 -325 -188 -392
-227 -68 -39 -125 -71 -128 -71 -3 0 -5 287 -5 638 l0 638 63 35 c34 20 105
60 157 91 52 30 185 107 295 170 110 63 254 147 320 185 66 38 239 138 385
222 146 84 294 170 330 191 36 21 227 131 425 245 198 114 401 231 450 260 50
29 268 155 485 281 217 125 463 266 545 314 83 48 181 105 218 126 38 21 114
65 170 98 56 32 131 75 167 96 265 153 465 268 580 335 74 43 162 94 195 113
33 18 101 57 150 86 50 29 180 105 290 168 290 168 298 172 296 181 0 4 -1
1436 -1 3183 l0 3175 -62 -32 c-35 -18 -89 -50 -121 -71 -32 -21 -60 -38 -62
-38 -4 0 -144 -81 -285 -163 -48 -28 -106 -62 -160 -92 -25 -14 -82 -47 -126
-73 -45 -26 -146 -84 -225 -130 -79 -46 -153 -88 -164 -95 -32 -19 -104 -60
-180 -104 -38 -22 -108 -62 -155 -89 -46 -27 -93 -53 -102 -59 -10 -5 -91 -52
-181 -104 -89 -52 -172 -99 -184 -105 -13 -6 -23 -14 -23 -18 0 -5 -6 -8 -13
-8 -7 0 -36 -15 -64 -34 -29 -19 -62 -37 -73 -41 l-20 -6 0 -1917 0 -1917 -62
-35 c-168 -95 -251 -143 -603 -346 -209 -122 -416 -241 -460 -266 -168 -96
-593 -342 -663 -384 -40 -24 -74 -44 -76 -44 -1 0 -70 -39 -152 -87 -82 -47
-223 -129 -314 -181 -162 -93 -244 -140 -730 -422 -135 -79 -249 -143 -255
-143 -5 0 -50 24 -100 53 -49 30 -119 70 -155 90 -142 80 -287 164 -320 185
-19 12 -55 33 -80 47 -88 50 -424 243 -705 406 -408 236 -837 482 -841 482 -2
0 -4 -1432 -4 -3182 l0 -3183 28 -16 c15 -8 104 -60 197 -114 253 -147 718
-415 900 -520 88 -50 237 -136 330 -190 94 -54 244 -141 335 -193 91 -52 201
-116 245 -142 44 -26 100 -58 125 -72 l45 -26 65 38 c339 195 677 390 780 450
378 219 654 378 723 417 43 24 97 55 119 69 23 15 60 36 82 48 36 20 132 75
386 223 41 24 82 48 90 53 8 5 58 33 110 63 52 30 154 88 225 129 72 42 204
118 295 170 351 202 887 512 922 535 21 12 40 23 42 23 3 0 96 53 208 118 277
162 593 344 713 413 110 62 556 319 699 403 50 30 226 131 391 226 288 166
413 238 555 320 36 21 119 69 185 107 66 38 180 104 253 146 72 42 189 110
260 151 381 220 745 430 877 507 83 47 251 145 375 216 124 71 282 162 353
203 l127 75 0 5092 c0 2800 -3 5094 -7 5096 -5 2 -55 -25 -113 -59z"/>
<path d="M4720 7687 l0 -4462 131 -75 c72 -41 163 -93 202 -116 40 -22 133
-76 207 -119 109 -63 469 -271 615 -355 17 -10 100 -58 185 -107 85 -50 272
-158 415 -240 143 -82 300 -173 349 -201 49 -29 90 -52 92 -52 2 0 4 2006 4
4459 l0 4458 -247 143 c-137 78 -300 173 -363 210 -63 37 -263 153 -445 257
-181 105 -375 216 -430 248 -55 32 -172 99 -260 150 -88 51 -226 131 -307 178
l-148 86 0 -4462z"/>
</g>
</svg>
